<?xml version="1.0" standalone="no"?>
<!DOCTYPE svg PUBLIC "-//W3C//DTD SVG 20010904//EN"
 "http://www.w3.org/TR/2001/REC-SVG-20010904/DTD/svg10.dtd">
<svg version="1.0" xmlns="http://www.w3.org/2000/svg"
 width="128px" height="128px" viewBox="0 0 1920.000000 1920.000000"
 preserveAspectRatio="xMidYMid meet">
<metadata>
Created by potrace 1.15, written by Peter Selinger 2001-2017
</metadata>
<g transform="translate(0.000000,1920.000000) scale(0.100000,-0.100000)"
fill="#FFFFFF" stroke="none">
<path d="M8930 18360 c-165 -23 -374 -85 -533 -159 -237 -110 -460 -295 -573
-477 -98 -158 -201 -472 -238 -729 -53 -371 -42 -761 30 -1085 47 -207 96
-304 237 -462 175 -198 204 -246 270 -453 62 -193 80 -300 80 -475 0 -134 -4
-168 -26 -255 -52 -200 -179 -403 -348 -559 -192 -176 -368 -284 -889 -546
-760 -381 -949 -502 -1072 -687 -175 -262 -271 -609 -308 -1118 -14 -200 -12
-785 5 -1240 39 -1052 27 -1511 -51 -1973 -79 -472 -166 -674 -534 -1237 -263
-402 -284 -443 -471 -905 -139 -343 -213 -498 -301 -630 -69 -105 -213 -255
-298 -313 -50 -34 -64 -38 -160 -47 -222 -23 -408 -74 -596 -164 -180 -86
-309 -174 -640 -433 -94 -74 -231 -176 -304 -226 l-134 -92 -42 -95 c-37 -83
-42 -105 -47 -195 -8 -140 -39 -281 -98 -448 -136 -381 -157 -475 -145 -637
17 -221 78 -347 258 -535 161 -169 356 -310 583 -421 292 -143 544 -188 1060
-187 314 0 442 8 1070 63 686 61 731 64 1055 64 290 1 307 0 350 -20 81 -38
119 -89 184 -249 43 -104 93 -178 136 -200 28 -15 42 -14 208 14 399 67 711
91 1257 98 927 12 1629 -43 3559 -277 1168 -141 1607 -184 2141 -209 996 -47
1784 2 2395 150 652 157 1089 438 1275 822 136 281 151 668 35 916 -61 130
-146 228 -376 435 -84 74 -180 166 -214 203 -80 86 -161 209 -203 309 l-34 78
-94 56 c-53 31 -201 124 -330 207 -304 195 -366 232 -534 319 -209 108 -407
181 -630 233 l-69 16 -193 300 c-379 588 -532 857 -795 1405 -52 107 -173 344
-268 525 -514 975 -625 1333 -691 2220 -6 83 -14 580 -19 1105 -8 932 -14
1098 -46 1385 -50 449 -150 777 -311 1017 -159 237 -338 346 -883 538 -334
118 -410 149 -630 261 -345 174 -517 287 -670 439 -206 204 -282 409 -267 720
12 233 56 367 242 740 143 287 187 392 225 544 49 193 65 371 65 726 0 249 -4
343 -18 450 -64 474 -187 775 -402 985 -193 189 -433 318 -703 376 -110 23
-418 34 -532 19z m2594 -9497 c25 -254 124 -791 202 -1096 249 -979 672 -1809
1264 -2482 284 -323 388 -444 447 -521 143 -188 246 -371 298 -529 30 -92 61
-242 52 -251 -8 -8 -370 13 -527 32 -271 31 -504 81 -725 155 -116 39 -396
169 -444 207 -21 17 -24 32 -37 168 -40 418 -127 782 -364 1514 -253 780 -324
1050 -376 1435 -13 96 -18 196 -18 380 0 283 17 422 78 665 35 140 122 390
136 390 4 0 10 -30 14 -67z m-4569 -521 c132 -266 188 -567 188 -1012 0 -430
-47 -807 -174 -1375 -106 -479 -300 -1120 -502 -1660 -72 -194 -61 -182 -210
-220 -141 -35 -272 -55 -431 -64 -313 -19 -650 23 -912 113 -146 51 -165 59
-160 73 9 22 147 225 233 340 106 145 325 416 531 660 531 630 767 964 972
1378 265 535 378 1010 397 1658 3 120 10 214 14 210 4 -4 29 -50 54 -101z"/>
</g>
</svg>
